<?xml version="1.0" encoding="UTF-8" standalone="no"?>
<svg width="128" height="128" viewBox="0 0 128 128" xmlns="http://www.w3.org/2000/svg">
    <!-- 定義漸層和圖案 -->
    <defs>
        <!-- 背景漸層 -->
        <linearGradient id="bg-gradient" x1="0%" y1="0%" x2="100%" y2="100%">
            <stop offset="0%" style="stop-color:#1E1E1E"/>
            <stop offset="100%" style="stop-color:#2D2D2D"/>
        </linearGradient>
        
        <!-- 數據流動效果 -->
        <pattern id="grid" width="16" height="16" patternUnits="userSpaceOnUse">
            <path d="M 16 0 L 0 0 0 16" fill="none" stroke="#007ACC" stroke-width="0.5" opacity="0.1"/>
        </pattern>

        <!-- 光暈效果 -->
        <!-- <filter id="glow" x="-50%" y="-50%" width="200%" height="200%">
            <feGaussianBlur in="SourceGraphic" stdDeviation="2" result="blur"/>
            <feComposite in="blur" operator="over" in2="SourceGraphic"/>
        </filter> -->
    </defs>

    <!-- 背景層 -->
    <rect width="128" height="128" fill="url(#bg-gradient)"/>
    <rect width="128" height="128" fill="url(#grid)"/>

    <!-- 中心圖形組 -->
    <g transform="translate(64, 64)" filter="url(#glow)">
        <!-- 左側服務器圖示 -->
        <g transform="translate(-40, -25)">
            <rect x="0" y="0" width="30" height="50" rx="4" 
                  fill="#007ACC" opacity="0.9"/>
            <rect x="5" y="5" width="20" height="3" rx="1" 
                  fill="#ffffff" opacity="0.7"/>
            <rect x="5" y="12" width="20" height="3" rx="1" 
                  fill="#ffffff" opacity="0.7"/>
        </g>

        <!-- 右側客戶端圖示 -->
        <g transform="translate(10, -25)">
            <rect x="0" y="0" width="30" height="50" rx="4" 
                  fill="#007ACC" opacity="0.9"/>
            <rect x="5" y="40" width="20" height="3" rx="1" 
                  fill="#ffffff" opacity="0.7"/>
        </g>

        <!-- 連接箭頭 -->
        <path d="M -5 0 L 5 0 M 0 -5 L 5 0 L 0 5" 
              stroke="#ffffff" 
              stroke-width="3" 
              fill="none"/>
    </g>

    <!-- 文字 -->
    <g transform="translate(64, 95)">
        <text x="0" y="-60" 
              font-family="Segoe UI, sans-serif" 
              font-size="24" 
              fill="#ffffff" 
              text-anchor="middle" 
              font-weight="600">SFTP &amp; SCP</text>
        <text x="0" y="18" 
              font-family="Segoe UI, sans-serif" 
              font-size="30" 
              fill="#ffffff" 
              text-anchor="middle" 
                font-weight="600">GUI</text>
    </g>
</svg> 